# xmcd
#
# Track frame offsets: 
#        150
#        23547
#        47650
#
# Disc length: 944 seconds
#
# Revision: 1
# Processed by: cddbd v1.5.1PL0 Copyright (c) Steve Scherf et al.
# Submitted via: ExactAudioCopy v0.90b4
#
DISCID=1703ae03
DTITLE=TWO-MIX - BODY MAKES STREAM
DYEAR=1999
DGENRE=Anime
TTITLE0=BODY MAKES STREAM
TTITLE1=JUSTICE -another possibility-
TTITLE2=BODY MAKES STREAM [Instrumental]
EXTD=
EXTT0=
EXTT1=
EXTT2=
PLAYORDER=
